<svg xmlns="http://www.w3.org/2000/svg" viewBox="0 0 400 240" fill="none">
  <rect width="400" height="240" rx="16" fill="#121212"/>
  <rect x="2" y="2" width="396" height="236" rx="14" stroke="#F5C400" stroke-opacity="0.3" stroke-width="2"/>
  <!-- Browser Chrome -->
  <rect x="24" y="24" width="352" height="192" rx="10" fill="#1A1A1A" stroke="#2A2A2A"/>
  <rect x="24" y="24" width="352" height="28" rx="10" fill="#242424"/>
  <circle cx="44" cy="38" r="4" fill="#EF4444"/>
  <circle cx="58" cy="38" r="4" fill="#F59E0B"/>
  <circle cx="72" cy="38" r="4" fill="#10B981"/>
  <rect x="96" y="32" width="180" height="12" rx="6" fill="#121212"/>
  <text x="104" y="41" fill="#71717A" font-family="monospace" font-size="8">npx playwright test --headed</text>
  
  <!-- Playwright logo mark / Test runner representation -->
  <circle cx="70" cy="110" r="28" fill="#F5C400" fill-opacity="0.15" stroke="#F5C400" stroke-width="2"/>
  <path d="M60 110 L68 118 L82 100" stroke="#F5C400" stroke-width="3" stroke-linecap="round" stroke-linejoin="round"/>
  
  <!-- Running tests visual -->
  <rect x="120" y="74" width="230" height="22" rx="4" fill="#222" stroke="#333"/>
  <circle cx="132" cy="85" r="4" fill="#10B981"/>
  <text x="144" y="89" fill="#E4E4E7" font-family="monospace" font-size="9">✓ e2e/checkout.spec.ts (820ms)</text>

  <rect x="120" y="104" width="230" height="22" rx="4" fill="#222" stroke="#333"/>
  <circle cx="132" cy="115" r="4" fill="#10B981"/>
  <text x="144" y="119" fill="#E4E4E7" font-family="monospace" font-size="9">✓ auth/login.setup.ts (412ms)</text>

  <rect x="120" y="134" width="230" height="22" rx="4" fill="#222" stroke="#333"/>
  <circle cx="132" cy="145" r="4" fill="#10B981"/>
  <text x="144" y="149" fill="#E4E4E7" font-family="monospace" font-size="9">✓ api/orders.spec.ts (190ms)</text>

  <!-- Tag line -->
  <rect x="120" y="170" width="130" height="20" rx="4" fill="#F5C400" fill-opacity="0.2"/>
  <text x="130" y="184" fill="#F5C400" font-family="sans-serif" font-weight="700" font-size="10">12 Passed · Chromium / WebKit</text>
</svg>
