<svg xmlns="http://www.w3.org/2000/svg" viewBox="0 0 540 320" width="100%" height="100%">
  <rect width="540" height="320" rx="10" fill="#121212" stroke="#262626" stroke-width="1"/>
  <rect x="20" y="20" width="240" height="180" rx="8" fill="#171717" stroke="#282828"/>
  <circle cx="50" cy="50" r="16" fill="rgba(245,196,0,0.15)" stroke="#f5c400"/>
  <text x="41" y="55" fill="#f5c400" font-family="sans-serif" font-size="13" font-weight="bold">PW</text>
  <text x="80" y="48" fill="#f5f5f5" font-family="sans-serif" font-size="13" font-weight="bold">Playwright Labs</text>
  <text x="80" y="65" fill="#71717a" font-family="sans-serif" font-size="10">End-to-End Automation Track</text>
  <rect x="40" y="85" width="200" height="4" rx="2" fill="#252525"/>
  <rect x="40" y="85" width="160" height="4" rx="2" fill="#f5c400"/>
  <text x="40" y="110" fill="#a1a1a1" font-family="sans-serif" font-size="10">Framework Architecture</text>
  <text x="40" y="130" fill="#a1a1a1" font-family="sans-serif" font-size="10">Mock APIs &amp; CI/CD Pipelines</text>

  <rect x="280" y="20" width="240" height="180" rx="8" fill="#171717" stroke="#282828"/>
  <circle cx="310" cy="50" r="16" fill="rgba(56,189,248,0.15)" stroke="#38bdf8"/>
  <text x="303" y="55" fill="#38bdf8" font-family="sans-serif" font-size="13" font-weight="bold">JS</text>
  <text x="340" y="48" fill="#f5f5f5" font-family="sans-serif" font-size="13" font-weight="bold">Full Stack JS Track</text>
  <text x="340" y="65" fill="#71717a" font-family="sans-serif" font-size="10">Node, React &amp; Cloud Systems</text>
  <rect x="300" y="85" width="200" height="4" rx="2" fill="#252525"/>
  <rect x="300" y="85" width="140" height="4" rx="2" fill="#38bdf8"/>
  <text x="300" y="110" fill="#a1a1a1" font-family="sans-serif" font-size="10">Project Portfolio Focus</text>
  <text x="300" y="130" fill="#a1a1a1" font-family="sans-serif" font-size="10">REST APIs &amp; Database Modeling</text>

  <rect x="20" y="215" width="500" height="85" rx="8" fill="#0e0e0e" stroke="#242424"/>
  <text x="38" y="240" fill="#34d399" font-family="monospace" font-size="11">$ npx playwright test</text>
  <text x="38" y="260" fill="#a1a1a1" font-family="monospace" font-size="11">Running automated test suites in parallel workers</text>
  <text x="38" y="280" fill="#f5c400" font-family="monospace" font-size="11">Test execution verified &#10004;</text>
</svg>